<svg width="20" height="20" viewBox="0 0 20 20" fill="none" xmlns="http://www.w3.org/2000/svg">
<path d="M11.0199 0C12.8199 0 13.1999 0.0199999 14.1199 0.0599999C15.1799 0.11 15.9099 0.28 16.5399 0.53C17.1999 0.78 17.7599 1.13 18.3099 1.68C18.8699 2.23 19.2099 2.79 19.4699 3.45C19.7199 4.08 19.8799 4.81 19.9299 5.88C19.9799 6.83 19.9899 7.2 19.9899 9.2V10.8C19.9899 12.8 19.9799 13.17 19.9299 14.12C19.9142 14.9468 19.7587 15.7651 19.4699 16.54C19.2099 17.2 18.8699 17.76 18.3199 18.31C17.7599 18.87 17.1999 19.21 16.5399 19.47C15.9099 19.72 15.1799 19.88 14.1199 19.93C13.1699 19.98 12.7899 19.99 10.7899 19.99H9.19991C7.19991 19.99 6.82991 19.98 5.86991 19.93C5.04309 19.9141 4.2249 19.7586 3.44991 19.47C2.78352 19.2195 2.17956 18.8271 1.67991 18.32C1.16771 17.8186 0.771741 17.211 0.519909 16.54C0.231529 15.765 0.0760121 14.9468 0.0599092 14.12C0.0108862 13.0874 -0.0091216 12.0537 -9.07911e-05 11.02V8.97C-9.07911e-05 7.17 0.0199092 6.79 0.0599092 5.87C0.109909 4.81 0.279909 4.08 0.519909 3.45C0.779909 2.79 1.11991 2.23 1.67991 1.68C2.17509 1.16743 2.78035 0.774176 3.44991 0.53C4.22436 0.238206 5.04253 0.079305 5.86991 0.0599999C6.78991 0.0199999 7.16991 0 8.96991 0H11.0199ZM11.0399 1.8H8.94991C7.21991 1.8 6.84991 1.82 5.94991 1.86C4.97991 1.9 4.44991 2.06 4.09991 2.2C3.62991 2.38 3.29991 2.6 2.94991 2.95C2.59991 3.3 2.37991 3.63 2.19991 4.1C2.06991 4.45 1.89991 4.98 1.85991 5.96C1.81991 6.86 1.79991 7.22 1.79991 8.96V11.04C1.79991 12.78 1.81991 13.14 1.85991 14.04C1.89991 15.01 2.05991 15.54 2.19991 15.89C2.37991 16.36 2.59991 16.69 2.94991 17.04C3.29991 17.39 3.62991 17.61 4.09991 17.79C4.44991 17.93 4.97991 18.09 5.95991 18.13C6.92991 18.18 7.27991 18.19 9.43991 18.19H10.5499C12.7199 18.19 13.0599 18.18 14.0399 18.13C15.0099 18.09 15.5399 17.93 15.8899 17.79C16.3599 17.61 16.6899 17.39 17.0399 17.04C17.3899 16.69 17.6099 16.36 17.7899 15.89C17.9299 15.54 18.0899 15.01 18.1299 14.04C18.1799 13.06 18.1899 12.72 18.1899 10.55V9.45C18.1899 7.28 18.1799 6.93 18.1299 5.95C18.0899 4.98 17.9299 4.45 17.7899 4.1C17.629 3.66543 17.3727 3.27246 17.0399 2.95C16.7177 2.61692 16.3246 2.3606 15.8899 2.2C15.2968 1.98317 14.6713 1.86822 14.0399 1.86C13.0407 1.81227 12.0403 1.79226 11.0399 1.8ZM9.99991 4.86C11.3618 4.86 12.6679 5.40101 13.6309 6.36401C14.5939 7.32701 15.1349 8.63311 15.1349 9.995C15.1349 11.3569 14.5939 12.663 13.6309 13.626C12.6679 14.589 11.3618 15.13 9.99991 15.13C8.63802 15.13 7.33192 14.589 6.36892 13.626C5.40592 12.663 4.86491 11.3569 4.86491 9.995C4.86491 8.63311 5.40592 7.32701 6.36892 6.36401C7.33192 5.40101 8.63802 4.86 9.99991 4.86ZM9.99991 6.66C9.11541 6.66 8.26714 7.01136 7.64171 7.6368C7.01627 8.26223 6.66491 9.1105 6.66491 9.995C6.66491 10.8795 7.01627 11.7278 7.64171 12.3532C8.26714 12.9786 9.11541 13.33 9.99991 13.33C10.8844 13.33 11.7327 12.9786 12.3581 12.3532C12.9835 11.7278 13.3349 10.8795 13.3349 9.995C13.3349 9.1105 12.9835 8.26223 12.3581 7.6368C11.7327 7.01136 10.8844 6.66 9.99991 6.66ZM15.3299 3.46C15.6482 3.46 15.9534 3.58643 16.1784 3.81147C16.4035 4.03652 16.5299 4.34174 16.5299 4.66C16.5299 4.97826 16.4035 5.28348 16.1784 5.50853C15.9534 5.73357 15.6482 5.86 15.3299 5.86C15.0116 5.86 14.7064 5.73357 14.4814 5.50853C14.2563 5.28348 14.1299 4.97826 14.1299 4.66C14.1299 4.34174 14.2563 4.03652 14.4814 3.81147C14.7064 3.58643 15.0116 3.46 15.3299 3.46Z" fill="white"/>
</svg>
